# xmcd CD database file
#
# Track frame offsets:
#	150
#	43098
#	76303
#	105139
#	123104
#	149171
#	169069
#	188121
#	209262
#	237172
#	264898
#
# Disc length: 3852 seconds
#
# Revision: 0
# Processed by: cddbd v1.5.2PL0 Copyright (c) Steve Scherf et al.
# Submitted via: CDex 1.51
#
DISCID=8d0f0a0b
DTITLE=Will Goble - Some Stories Tell No Lies
DYEAR=2012
DGENRE=Jazz
TTITLE0=Will Goble - The Dark Knight
TTITLE1=Will Goble - A Little Blue Circle
TTITLE2=Will Goble - Blessed Unrest
TTITLE3=Will Goble - Nobody Knows You When You're Down And Out
TTITLE4=Will Goble - Ill Bill
TTITLE5=Will Goble - Roused About
TTITLE6=Will Goble - The Soldier In White
TTITLE7=Will Goble - Hackensack
TTITLE8=Will Goble - Big Earl's Last Ride
TTITLE9=Will Goble - Calm Before The Storm
TTITLE10=Will Goble - Bullish
EXTD=YEAR: 2012
EXTT0=
EXTT1=
EXTT2=
EXTT3=
EXTT4=
EXTT5=
EXTT6=
EXTT7=
EXTT8=
EXTT9=
EXTT10=
PLAYORDER=
